<?xml version="1.0" encoding="UTF-8"?>
<svg version="1.1" xmlns="http://www.w3.org/2000/svg" width="1000" height="1000">
<path d="M0 0 C0.99 0 1.98 0 3 0 C3.47308594 0.94359375 3.94617188 1.8871875 4.43359375 2.859375 C8.89021114 11.57849628 13.85620477 19.33631117 20 27 C20.92425781 28.22976562 20.92425781 28.22976562 21.8671875 29.484375 C32.62304247 43.39355291 45.90026448 56.49579116 60 67 C61.38163954 68.05972751 62.76313662 69.11964076 64.14453125 70.1796875 C90.48376862 90.18149756 119.53773522 105.14330188 149.39990234 119.12353516 C160.0249993 124.11277336 169.48949579 130.12006079 179 137 C183.61381197 134.41673075 188.03649101 131.68752821 192.4375 128.75 C200.9810601 123.19026605 210.01000338 118.84164271 219.20410156 114.47998047 C271.64882054 89.59527392 330.67959282 55.04436343 356 0 C356.99 0 357.98 0 359 0 C361.58312727 52.30832731 344.46869375 111.89331488 309.44140625 151.3125 C308.63574219 152.199375 307.83007812 153.08625 307 154 C306.41089844 154.66 305.82179688 155.32 305.21484375 156 C291.08549552 170.99724432 270.93854781 181.46389034 252 189 C251.34 189 250.68 189 250 189 C249.95609131 189.72485596 249.91218262 190.44971191 249.86694336 191.1965332 C249.3379426 198.6946224 248.1782623 205.85297549 246.5625 213.1875 C246.34529297 214.20263672 246.12808594 215.21777344 245.90429688 216.26367188 C245.68966797 217.26333984 245.47503906 218.26300781 245.25390625 219.29296875 C245.04749512 220.26878906 244.84108398 221.24460937 244.62841797 222.25 C244.24083365 223.9460955 243.80630902 225.63316356 243.29736328 227.296875 C241.28469252 234.17961567 242.93710246 239.82638641 244.75 246.625 C245.32530127 248.93626395 245.89564857 251.24876686 246.4609375 253.5625 C246.73260742 254.66980469 247.00427734 255.77710938 247.28417969 256.91796875 C249.27393885 265.48506275 250.35914015 274.20106643 250 283 C250.87833496 283.27763184 251.75666992 283.55526367 252.66162109 283.84130859 C288.80662046 296.3865892 316.70866591 322.8587203 333.85107422 356.61328125 C350.95764788 392.14958897 360.37735579 433.51580081 359 473 C354.99912814 471.51371499 353.87806173 469.46237897 351.9375 465.75 C345.08247873 453.53081497 335.68180185 443.05573691 326 433 C325.17363037 432.14075928 325.17363037 432.14075928 324.33056641 431.26416016 C316.9430131 423.62904852 309.39712721 416.52991341 301 410 C299.67225177 408.93344256 298.34550613 407.86563632 297.01953125 406.796875 C272.88516305 387.49369882 245.75628367 371.43494568 217.9296875 358.02734375 C205.21655651 351.88586723 193.68103828 344.63028124 182.953125 335.3984375 C180.99382149 333.70891962 180.99382149 333.70891962 178 334 C175.8140342 335.63217024 175.8140342 335.63217024 173.4375 337.8125 C163.17920196 346.41972633 151.45789032 352.96406941 139.45117188 358.81201172 C115.44371268 370.52993823 92.5092307 384.15579786 71 400 C70.1352002 400.63518555 70.1352002 400.63518555 69.25292969 401.28320312 C44.91607035 419.27565567 22.88827461 440.2320737 6.875 466.0390625 C3.7797075 470.92704525 3.7797075 470.92704525 2 473 C1.34 473 0.68 473 0 473 C-1.7687978 422.29446305 12.83578256 364.29238806 46 325 C46.42216797 324.4942041 46.84433594 323.9884082 47.27929688 323.46728516 C58.44632463 310.21378643 71.6810829 300.91499224 87 293 C88.3003418 292.32710938 88.3003418 292.32710938 89.62695312 291.640625 C92.3709997 290.22884698 95.1208183 288.82939563 97.875 287.4375 C98.74979004 286.995271 99.62458008 286.55304199 100.52587891 286.09741211 C101.33976074 285.69272705 102.15364258 285.28804199 102.9921875 284.87109375 C103.71776855 284.50943115 104.44334961 284.14776855 105.19091797 283.77514648 C107 283 107 283 109 283 C109.01417969 282.13503906 109.02835937 281.27007812 109.04296875 280.37890625 C109.46311511 269.28477123 111.45492068 258.73252008 113.74609375 247.8828125 C113.95250488 246.88620605 114.15891602 245.88959961 114.37158203 244.86279297 C114.7697036 243.04912804 115.20872624 241.24356683 115.70263672 239.45361328 C117.5552484 232.27743787 116.21392832 226.67102355 114.25 219.625 C108.80891574 199.1705536 108.80891574 199.1705536 109 189 C108.21625 188.76410156 107.4325 188.52820313 106.625 188.28515625 C87.2411734 181.41308841 70.21019375 170.6975778 55 157 C54.33484375 156.40703125 53.6696875 155.8140625 52.984375 155.203125 C17.22335199 121.447393 1.82616779 62.5523298 -0.11572266 15.17675781 C-0.22709 10.11180733 -0.17457604 5.06270506 0 0 Z M115 193 C116.41621379 196.12688787 118.12331976 198.53900915 120.375 201.125 C121.25285156 202.14980469 121.25285156 202.14980469 122.1484375 203.1953125 C124.00671761 205.00654755 125.6282627 205.98652635 128 207 C128.66 204.69 129.32 202.38 130 200 C127.87767021 198.82823482 125.75242209 197.66245215 123.625 196.5 C123.02171875 196.16613281 122.4184375 195.83226562 121.796875 195.48828125 C118.58585223 193.61226062 118.58585223 193.61226062 115 193 Z M235.375 196.5 C234.76398438 196.83386719 234.15296875 197.16773438 233.5234375 197.51171875 C232.01358199 198.33742098 230.50652152 199.16823037 229 200 C229.66 202.31 230.32 204.62 231 207 C234.83450856 205.45212498 237.02555699 203.06277254 239.75 200 C240.54921875 199.113125 241.3484375 198.22625 242.171875 197.3125 C244.20671991 195.22981302 244.20671991 195.22981302 244 193 C240.74085881 193 238.16669851 194.95502155 235.375 196.5 Z M172.375 231.375 C171.39273438 232.00148438 170.41046875 232.62796875 169.3984375 233.2734375 C166.91781188 234.77718845 166.91781188 234.77718845 166 237 C172.93 240.96 172.93 240.96 180 245 C184.29 242.36 188.58 239.72 193 237 C188.62082208 232.62082208 186.25363958 230.62681979 181 228 C177.15691635 228 175.58212572 229.30179208 172.375 231.375 Z M123.6875 267.0625 C119.95700132 270.81675982 117.318458 274.26228148 115 279 C119.35970831 277.65150163 123.31341438 275.95092154 127.375 273.875 C128.43460938 273.33617187 129.49421875 272.79734375 130.5859375 272.2421875 C131.38257813 271.83226562 132.17921875 271.42234375 133 271 C131.68 268.36 130.36 265.72 129 263 C126.9079759 263 125.05366039 265.72317091 123.6875 267.0625 Z M230 263 C228.68 265.64 227.36 268.28 226 271 C228.62035018 272.36389525 231.24556999 273.71632173 233.875 275.0625 C234.62136719 275.45244141 235.36773438 275.84238281 236.13671875 276.24414062 C236.85214844 276.60830078 237.56757812 276.97246094 238.3046875 277.34765625 C239.2944458 277.85824585 239.2944458 277.85824585 240.30419922 278.37915039 C240.86381348 278.58403076 241.42342773 278.78891113 242 279 C242.66 278.67 243.32 278.34 244 278 C239.79211991 272.24454091 235.58490476 267.44512827 230 263 Z " fill="#CFAA56" transform="translate(316,134)"/>
<path d="M0 0 C0.99 0 1.98 0 3 0 C3.47308594 0.94359375 3.94617188 1.8871875 4.43359375 2.859375 C8.89021114 11.57849628 13.85620477 19.33631117 20 27 C20.92425781 28.22976562 20.92425781 28.22976562 21.8671875 29.484375 C32.62304247 43.39355291 45.90026448 56.49579116 60 67 C61.38163954 68.05972751 62.76313662 69.11964076 64.14453125 70.1796875 C90.45594672 90.16036983 119.50486001 105.22675594 149.38378906 119.10742188 C162.41947081 125.16750773 174.95077582 132.59129138 185 143 C185.99788471 143.9168892 187.00354372 144.8253682 188.015625 145.7265625 C195.05380105 152.01505273 201.28098674 158.45449559 207 166 C207.42490723 166.54462891 207.84981445 167.08925781 208.28759766 167.65039062 C215.98500168 177.52212432 222.20828448 187.91536463 228 199 C228.39848145 199.72848145 228.79696289 200.45696289 229.20751953 201.20751953 C229.77188721 202.26688721 229.77188721 202.26688721 230.34765625 203.34765625 C230.68933838 203.97808838 231.03102051 204.60852051 231.38305664 205.25805664 C232 207 232 207 231 210 C229.609375 211.25390625 229.609375 211.25390625 227.75 212.5625 C224.58042184 214.84346428 221.47132473 217.1797512 218.39672852 219.58764648 C212.55372632 224.15549683 206.59530818 228.37813193 200.36328125 232.40625 C197.94509493 233.92764134 197.94509493 233.92764134 196 236 C191.67481785 235.6824167 188.44616625 233.78261429 184.75 231.625 C183.69296875 231.01914062 182.6359375 230.41328125 181.546875 229.7890625 C179 228 179 228 178 225 C175.81530773 223.43573188 175.81530773 223.43573188 173.06640625 221.99609375 C172.03322266 221.4247168 171.00003906 220.85333984 169.93554688 220.26464844 C168.82244141 219.66168945 167.70933594 219.05873047 166.5625 218.4375 C164.27202062 217.18119885 161.98165681 215.92468698 159.69140625 214.66796875 C158.55590332 214.04841309 157.42040039 213.42885742 156.25048828 212.79052734 C153.36441721 211.20073876 150.50335754 209.57734648 147.65234375 207.92578125 C146.85820068 207.46953369 146.06405762 207.01328613 145.24584961 206.54321289 C143.80041968 205.71090043 142.35941411 204.87083161 140.92407227 204.02124023 C136.69481993 201.61425147 132.87568323 200.41027014 128.10595703 199.4921875 C125.07932096 198.78482623 122.61125863 197.43187212 119.9375 195.875 C118.99777344 195.33617187 118.05804688 194.79734375 117.08984375 194.2421875 C116.40019531 193.83226562 115.71054687 193.42234375 115 193 C118.37793463 197.40730525 121.75859504 201.77568389 125.4375 205.9375 C128 209 128 209 128 211 C124.63163511 209.54238919 122.43494248 207.6759774 119.875 205.0625 C119.19179688 204.37285156 118.50859375 203.68320312 117.8046875 202.97265625 C116 201 116 201 114 198 C114.32563482 205.53844618 115.70582511 212.60664944 117.54003906 219.89624023 C118.63112008 224.25699535 119.43937472 228.53835717 120 233 C119.01 232.67 118.02 232.34 117 232 C116.14038086 229.78198242 116.14038086 229.78198242 115.46484375 226.85546875 C115.21283203 225.78490234 114.96082031 224.71433594 114.70117188 223.61132812 C114.44916016 222.48146484 114.19714844 221.35160156 113.9375 220.1875 C113.68162109 219.10017578 113.42574219 218.01285156 113.16210938 216.89257812 C108.82448499 198.12594098 108.82448499 198.12594098 109 189 C108.21625 188.76410156 107.4325 188.52820313 106.625 188.28515625 C87.2411734 181.41308841 70.21019375 170.6975778 55 157 C54.33484375 156.40703125 53.6696875 155.8140625 52.984375 155.203125 C17.22335199 121.447393 1.82616779 62.5523298 -0.11572266 15.17675781 C-0.22709 10.11180733 -0.17457604 5.06270506 0 0 Z " fill="#D5AE59" transform="translate(316,134)"/>
<path d="M0 0 C0.99 0.99 0.99 0.99 2 2 C2.44988281 2.44859375 2.89976562 2.8971875 3.36328125 3.359375 C4.59490076 4.59393394 5.82044238 5.83456089 7.04296875 7.078125 C7.75066406 7.79484375 8.45835937 8.5115625 9.1875 9.25 C9.86167969 9.93578125 10.53585937 10.6215625 11.23046875 11.328125 C12.90798995 13.07449111 12.90798995 13.07449111 15 14 C14.773125 13.484375 14.54625 12.96875 14.3125 12.4375 C13.83486278 8.71192968 15.38709761 6.35483696 17 3 C20.89548657 2.75782028 23.16891516 3.30392333 26.5625 5.203125 C27.43237549 5.68330078 28.30225098 6.16347656 29.19848633 6.65820312 C30.12298584 7.18349609 31.04748535 7.70878906 32 8.25 C32.95737061 8.78560547 33.91474121 9.32121094 34.90112305 9.87304688 C36.91366805 11.00134915 38.92363239 12.13426537 40.93115234 13.27148438 C43.96827946 14.98213354 47.02227329 16.65835581 50.08203125 18.328125 C51.99267057 19.38454346 53.90284441 20.44180431 55.8125 21.5 C57.1727832 22.23718262 57.1727832 22.23718262 58.56054688 22.98925781 C59.39263672 23.45686523 60.22472656 23.92447266 61.08203125 24.40625 C62.18381714 25.01436523 62.18381714 25.01436523 63.30786133 25.63476562 C65.36638462 27.29560277 65.64261022 28.42542561 66 31 C64.15404898 32.30338085 62.29780439 33.59218887 60.4375 34.875 C59.40496094 35.59429687 58.37242187 36.31359375 57.30859375 37.0546875 C54 39 54 39 50.60546875 39.9140625 C45.98284851 41.30635765 42.73031867 43.65926221 38.875 46.5 C37.77164307 47.29869507 37.77164307 47.29869507 36.64599609 48.11352539 C34.42209629 49.73101649 32.21043624 51.36417716 30 53 C29.0090332 53.72292236 29.0090332 53.72292236 27.99804688 54.46044922 C19.93742021 60.20577003 19.93742021 60.20577003 14 68 C12.34340113 69.77959461 10.59747696 71.40502698 8.81640625 73.05859375 C6.53037624 75.50194196 4.80040965 78.18661262 3 81 C4.04800781 80.4946875 5.09601563 79.989375 6.17578125 79.46875 C7.55454312 78.81219673 8.93345736 78.15596335 10.3125 77.5 C11.00279297 77.16613281 11.69308594 76.83226562 12.40429688 76.48828125 C17.66015625 74 17.66015625 74 21 74 C21.27561768 74.52730713 21.55123535 75.05461426 21.83520508 75.59790039 C28.06973918 87.44107329 34.63210042 98.54236134 43 109 C43.44843262 109.56267578 43.89686523 110.12535156 44.35888672 110.70507812 C51.04177464 119.01236264 58.34651726 126.5869408 66 134 C61.18366343 146.75599443 38.22680212 156.01177064 26.60302734 161.71069336 C2.56968143 173.53902616 -20.42929893 187.11051734 -42 203 C-42.8647998 203.63518555 -42.8647998 203.63518555 -43.74707031 204.28320312 C-68.08392965 222.27565567 -90.11172539 243.2320737 -106.125 269.0390625 C-109.2202925 273.92704525 -109.2202925 273.92704525 -111 276 C-111.66 276 -112.32 276 -113 276 C-114.7687978 225.29446305 -100.16421744 167.29238806 -67 128 C-66.57783203 127.4942041 -66.15566406 126.9884082 -65.72070312 126.46728516 C-54.55367537 113.21378643 -41.3189171 103.91499224 -26 96 C-25.13310547 95.55140625 -24.26621094 95.1028125 -23.37304688 94.640625 C-20.6290003 93.22884698 -17.8791817 91.82939563 -15.125 90.4375 C-13.81281494 89.77415649 -13.81281494 89.77415649 -12.47412109 89.09741211 C-11.66023926 88.69272705 -10.84635742 88.28804199 -10.0078125 87.87109375 C-9.28223145 87.50943115 -8.55665039 87.14776855 -7.80908203 86.77514648 C-6 86 -6 86 -4 86 C-3.98582031 85.13503906 -3.97164063 84.27007812 -3.95703125 83.37890625 C-3.617769 74.42054901 -2.38558456 65.85504734 -0.625 57.0625 C-0.41593018 56.0094165 -0.20686035 54.95633301 0.00854492 53.87133789 C1.28085587 47.7350225 2.89486487 41.90299587 5 36 C5.66 36 6.32 36 7 36 C6.823479 35.33581055 6.64695801 34.67162109 6.46508789 33.98730469 C5.65382151 30.9108417 4.85812502 27.83054356 4.0625 24.75 C3.78470703 23.70585937 3.50691406 22.66171875 3.22070312 21.5859375 C1.3762658 14.38596527 0.37874715 7.42177941 0 0 Z " fill="#00628E" transform="translate(429,331)"/>
<path d="M0 0 C0.99 0 1.98 0 3 0 C5.58312727 52.30832731 -11.53130625 111.89331488 -46.55859375 151.3125 C-47.36425781 152.199375 -48.16992188 153.08625 -49 154 C-49.58910156 154.66 -50.17820312 155.32 -50.78515625 156 C-64.91450448 170.99724432 -85.06145219 181.46389034 -104 189 C-104.66 189 -105.32 189 -106 189 C-106.06695068 190.08619629 -106.06695068 190.08619629 -106.13525391 191.19433594 C-106.66930272 198.69995198 -107.79561284 205.89832881 -109.375 213.25 C-109.68824219 214.78527344 -109.68824219 214.78527344 -110.0078125 216.3515625 C-110.94917693 220.8173035 -111.93209135 225.06769045 -113.6640625 229.296875 C-116.39605837 236.86977583 -114.36448944 243.50431037 -112.5625 251.0625 C-110.56733779 259.76079823 -109.17057337 268.05265135 -109 277 C-111.9964711 274.09433105 -114.78824143 271.11209701 -117.5 267.9375 C-120.10890999 264.91755823 -122.75781405 262.35795342 -126 260 C-126.103125 260.886875 -126.20625 261.77375 -126.3125 262.6875 C-127.01622037 266.07815268 -128.16306225 268.1091623 -130 271 C-139.28146755 266.47894131 -148.43218623 261.74913214 -157.5 256.8125 C-158.41861816 256.31395508 -159.33723633 255.81541016 -160.28369141 255.30175781 C-165.64139842 252.36909767 -170.85311716 249.28895434 -176 246 C-174.66049588 241.98148765 -172.90380927 241.53187442 -169.25 239.5 C-168.20328125 238.9121875 -167.1565625 238.324375 -166.078125 237.71875 C-165.06234375 237.1515625 -164.0465625 236.584375 -163 236 C-150.13461276 228.5418045 -136.54213384 219.54213384 -126 209 C-125.29875 208.319375 -124.5975 207.63875 -123.875 206.9375 C-117.17782559 200.53098808 -117.17782559 200.53098808 -112 193 C-113.33804688 193.77537109 -113.33804688 193.77537109 -114.703125 194.56640625 C-115.88505442 195.2324141 -117.06736637 195.89774341 -118.25 196.5625 C-118.83652344 196.90474609 -119.42304687 197.24699219 -120.02734375 197.59960938 C-124.43691154 200.0521218 -124.43691154 200.0521218 -127.06518555 199.80883789 C-129.52993024 198.77846575 -130.00357701 197.85850909 -131.19140625 195.4921875 C-131.57280762 194.76032227 -131.95420898 194.02845703 -132.34716797 193.27441406 C-132.74822754 192.48260742 -133.14928711 191.69080078 -133.5625 190.875 C-143.5472139 172.09733216 -158.06532252 151.95645166 -176 140 C-176 139.01 -176 138.02 -176 137 C-174.6015625 135.68481445 -174.6015625 135.68481445 -172.625 134.36328125 C-171.88507813 133.86763672 -171.14515625 133.37199219 -170.3828125 132.86132812 C-169.59648437 132.35021484 -168.81015625 131.83910156 -168 131.3125 C-167.27554687 130.82072266 -166.55109375 130.32894531 -165.8046875 129.82226562 C-155.25816203 122.85977127 -143.61067573 117.74007321 -132.20864868 112.35606384 C-81.3481359 88.31224898 -24.44287719 53.13668954 0 0 Z " fill="#00628F" transform="translate(672,134)"/>
<path d="M0 0 C11.6325 -0.0928125 11.6325 -0.0928125 23.5 -0.1875 C25.93310547 -0.21481201 28.36621094 -0.24212402 30.87304688 -0.27026367 C32.82160955 -0.27903315 34.77017775 -0.286676 36.71875 -0.29296875 C38.21196777 -0.3159906 38.21196777 -0.3159906 39.73535156 -0.33947754 C47.27120392 -0.34228384 53.02774273 0.52311894 59 5.5 C61.6854628 9.15369088 61.70246525 12.96116337 61.48046875 17.37109375 C60.69317981 21.67878041 59.38424821 23.19179404 56 26 C53.63225732 27.00286622 51.54749844 27.5004905 49 28 C50.37066751 29.71181142 51.74677081 31.41927081 53.125 33.125 C53.89070313 34.07632813 54.65640625 35.02765625 55.4453125 36.0078125 C58.15969388 39.18704207 61.01095142 42.0802627 64 45 C64.63276855 43.96782349 64.63276855 43.96782349 65.27832031 42.91479492 C65.87225586 41.94646729 66.46619141 40.97813965 67.078125 39.98046875 C67.73804443 38.9032959 68.39796387 37.82612305 69.07788086 36.71630859 C70.53133195 34.34900556 71.99656174 31.98957132 73.47094727 29.63525391 C76.87574095 24.18379052 80.18859693 18.76062705 83.13671875 13.04296875 C89.42518245 1.1870117 89.42518245 1.1870117 94.05371094 -0.94677734 C99.029447 -2.21314924 104.41417868 -2.54512221 109 0 C111.84840801 3.02455802 113.87982509 6.44110372 116 10 C116.64316162 11.02649658 117.28632324 12.05299316 117.94897461 13.1105957 C120.01315286 16.41243421 122.0415769 19.73403388 124.0625 23.0625 C125.42673589 25.30439002 126.79259263 27.54529461 128.16015625 29.78515625 C128.8061377 30.8436377 129.45211914 31.90211914 130.11767578 32.99267578 C132.29442308 36.47038956 134.59236767 39.84765473 136.96655273 43.19311523 C138 45 138 45 138 48 C135.28496539 48.27210815 132.59712795 48.46829856 129.875 48.625 C129.11445312 48.70878906 128.35390625 48.79257812 127.5703125 48.87890625 C125.04767643 48.98764056 123.3517205 48.95144216 121 48 C119.64697266 45.76904297 119.64697266 45.76904297 118.40625 43.03125 C117.09586003 40.22057754 117.09586003 40.22057754 115 38 C109.89016402 36.56912396 104.87624875 36.73369987 99.625 36.875 C98.20703019 36.87694376 96.78904663 36.87438357 95.37109375 36.8671875 C91.91236886 36.85939304 88.45778865 36.91299962 85 37 C84.731875 37.886875 84.46375 38.77375 84.1875 39.6875 C82.12254059 45.44764992 82.12254059 45.44764992 80 48 C74.81053085 49.28909872 69.39615273 49.16560172 64.0625 49.1875 C62.929263 49.20061218 62.929263 49.20061218 61.77313232 49.21398926 C47.5261478 49.249848 47.5261478 49.249848 42.25390625 45.00390625 C39.14034887 41.68357707 37.05753243 38.04190815 35 34 C33.90651851 31.54673589 33.90651851 31.54673589 32 30 C29.12713553 29.53844814 26.68658269 29.30616913 23.8125 29.25 C19.9453125 29.12625 19.9453125 29.12625 16 29 C16 35.27 16 41.54 16 48 C10.72 48 5.44 48 0 48 C0 32.16 0 16.32 0 0 Z M16 9 C16 12.63 16 16.26 16 20 C19.89625106 20.08098443 23.7908163 20.14049807 27.6875 20.1875 C29.34168945 20.22520508 29.34168945 20.22520508 31.02929688 20.26367188 C32.6293457 20.27817383 32.6293457 20.27817383 34.26171875 20.29296875 C35.24100342 20.3086792 36.22028809 20.32438965 37.22924805 20.34057617 C40.52001945 19.93608008 42.36770741 18.99368389 45 17 C45.33 16.01 45.66 15.02 46 14 C44.69083538 11.65728437 43.80817475 10.27832435 41.22558594 9.38891602 C38.63584201 8.93636423 36.20759109 8.88773561 33.578125 8.90234375 C32.55332031 8.90556641 31.52851563 8.90878906 30.47265625 8.91210938 C28.87744141 8.92467773 28.87744141 8.92467773 27.25 8.9375 C26.17105469 8.94201172 25.09210938 8.94652344 23.98046875 8.95117188 C21.32028875 8.96294258 18.66013731 8.98087761 16 9 Z M100 11 C98.66141476 13.28874173 97.32898986 15.58069656 96 17.875 C95.6184375 18.52597656 95.236875 19.17695312 94.84375 19.84765625 C92.72448844 23.20350201 92.72448844 23.20350201 92 27 C97.61 27 103.22 27 109 27 C107.46392719 23.15981797 105.86686467 19.78151668 103.875 16.1875 C103.33617187 15.21167969 102.79734375 14.23585938 102.2421875 13.23046875 C101.83226562 12.49441406 101.42234375 11.75835938 101 11 C100.67 11 100.34 11 100 11 Z " fill="#FFFFFF" transform="translate(435,641)"/>
<path d="M0 0 C0.66 0.66 1.32 1.32 2 2 C2.44988281 2.44859375 2.89976562 2.8971875 3.36328125 3.359375 C4.59490076 4.59393394 5.82044238 5.83456089 7.04296875 7.078125 C7.75066406 7.79484375 8.45835937 8.5115625 9.1875 9.25 C9.86167969 9.93578125 10.53585937 10.6215625 11.23046875 11.328125 C12.90798995 13.07449111 12.90798995 13.07449111 15 14 C14.6596875 13.2265625 14.6596875 13.2265625 14.3125 12.4375 C13.83486278 8.71192968 15.38709761 6.35483696 17 3 C20.89548657 2.75782028 23.16891516 3.30392333 26.5625 5.203125 C27.43237549 5.68330078 28.30225098 6.16347656 29.19848633 6.65820312 C30.12298584 7.18349609 31.04748535 7.70878906 32 8.25 C32.95737061 8.78560547 33.91474121 9.32121094 34.90112305 9.87304688 C36.91366805 11.00134915 38.92363239 12.13426537 40.93115234 13.27148438 C43.96827946 14.98213354 47.02227329 16.65835581 50.08203125 18.328125 C51.99267057 19.38454346 53.90284441 20.44180431 55.8125 21.5 C56.71935547 21.99145508 57.62621094 22.48291016 58.56054688 22.98925781 C59.39263672 23.45686523 60.22472656 23.92447266 61.08203125 24.40625 C62.18381714 25.01436523 62.18381714 25.01436523 63.30786133 25.63476562 C65.36638462 27.29560277 65.64261022 28.42542561 66 31 C64.15404898 32.30338085 62.29780439 33.59218887 60.4375 34.875 C59.40496094 35.59429687 58.37242187 36.31359375 57.30859375 37.0546875 C54 39 54 39 50.60546875 39.9140625 C45.98289197 41.30634456 42.73018999 43.65919387 38.875 46.5 C38.13290283 47.03753906 37.39080566 47.57507813 36.6262207 48.12890625 C34.40945477 49.74196633 32.20444545 51.3701634 30 53 C28.8086276 53.86462998 27.61722411 54.72921711 26.42578125 55.59375 C16.25016063 63.08562418 6.55439297 71.52897453 -0.01171875 82.453125 C-0.33785156 82.96359375 -0.66398437 83.4740625 -1 84 C-1.33 84 -1.66 84 -2 84 C-2.64829512 70.81799913 0.31482424 57.70783596 3.0625 44.875 C3.22459961 44.09898437 3.38669922 43.32296875 3.55371094 42.5234375 C3.968447 40.66595833 4.47574459 38.8295877 5 37 C5.99 36.505 5.99 36.505 7 36 C6.823479 35.33581055 6.64695801 34.67162109 6.46508789 33.98730469 C5.65382151 30.9108417 4.85812502 27.83054356 4.0625 24.75 C3.78470703 23.70585937 3.50691406 22.66171875 3.22070312 21.5859375 C1.3762658 14.38596527 0.37874715 7.42177941 0 0 Z " fill="#016FA1" transform="translate(429,331)"/>
<path d="M0 0 C0.94735519 0.00141495 1.89471039 0.0028299 2.87077332 0.00428772 C5.8865377 0.00987014 8.90222693 0.02241943 11.91796875 0.03515625 C13.9667958 0.04017352 16.01562402 0.04473603 18.06445312 0.04882812 C23.07815381 0.05983382 28.09179855 0.07708637 33.10546875 0.09765625 C33.10546875 3.06765625 33.10546875 6.03765625 33.10546875 9.09765625 C32.0160498 9.11223877 30.92663086 9.12682129 29.80419922 9.1418457 C25.7447909 9.20001697 21.68592638 9.27724807 17.62695312 9.36010742 C15.87346248 9.39326845 14.11986737 9.42132767 12.36621094 9.4440918 C9.83874177 9.47780095 7.31222237 9.53012317 4.78515625 9.5859375 C4.00679413 9.59232742 3.22843201 9.59871735 2.42648315 9.6053009 C-3.17206073 9.75499194 -7.46982783 10.84017376 -11.70703125 14.78515625 C-14.47432101 20.17408894 -14.10386766 25.4964313 -12.953125 31.23828125 C-11.23026279 34.2644156 -9.06093561 35.83825194 -5.89453125 37.09765625 C-1.93842389 37.70948941 1.98230437 37.79349392 5.98046875 37.84765625 C7.05039063 37.87730469 8.1203125 37.90695312 9.22265625 37.9375 C11.84986037 38.00787154 14.47766743 38.05506628 17.10546875 38.09765625 C17.10546875 34.79765625 17.10546875 31.49765625 17.10546875 28.09765625 C10.83546875 28.09765625 4.56546875 28.09765625 -1.89453125 28.09765625 C-1.89453125 25.12765625 -1.89453125 22.15765625 -1.89453125 19.09765625 C9.65546875 19.09765625 21.20546875 19.09765625 33.10546875 19.09765625 C33.10546875 28.66765625 33.10546875 38.23765625 33.10546875 48.09765625 C27.28861648 48.14376076 21.47240749 48.1835284 15.65551758 48.20751953 C13.67990969 48.21752915 11.70431644 48.23114094 9.72875977 48.24853516 C6.87642793 48.27300634 4.02429328 48.28419001 1.171875 48.29296875 C0.29962784 48.30329132 -0.57261932 48.31361389 -1.47129822 48.32424927 C-11.26034902 48.32600929 -19.38544035 46.70385045 -26.89453125 40.09765625 C-31.63607277 34.04990494 -32.55110047 27.54673251 -31.89453125 20.09765625 C-30.62895591 14.03883887 -28.48166911 9.38563295 -23.89453125 5.09765625 C-16.03426501 0.63874158 -8.87080073 -0.05005076 0 0 Z " fill="#FFFFFF" transform="translate(246.89453125,640.90234375)"/>
<path d="M0 0 C7.569375 -0.061875 15.13875 -0.12375 22.9375 -0.1875 C26.49519165 -0.22846802 26.49519165 -0.22846802 30.12475586 -0.27026367 C32.02978 -0.2790353 33.93480981 -0.28667763 35.83984375 -0.29296875 C37.29299988 -0.3159906 37.29299988 -0.3159906 38.7755127 -0.33947754 C45.96544339 -0.34221239 52.73403148 0.38722518 58.5 5 C61.66061088 9.21414785 61.59672472 13.9494603 61 19 C58.40336502 24.73423558 54.5703305 26.70156266 49 29 C50.12148438 30.21236328 50.12148438 30.21236328 51.265625 31.44921875 C52.26050237 32.52856684 53.25528923 33.60799837 54.25 34.6875 C54.98669922 35.48317383 54.98669922 35.48317383 55.73828125 36.29492188 C64 45.27265625 64 45.27265625 64 48 C49.28395579 49.52060158 49.28395579 49.52060158 44.078125 46.0546875 C41.16751251 42.772721 38.78353468 39.44742783 36.6953125 35.58984375 C35.26463133 33.14169057 34.31839068 31.66593551 32 30 C26.46488578 28.99211353 21.72712748 29 16 29 C16 35.27 16 41.54 16 48 C10.72 48 5.44 48 0 48 C0 32.16 0 16.32 0 0 Z M16 9 C16 12.63 16 16.26 16 20 C19.89625106 20.08098443 23.7908163 20.14049807 27.6875 20.1875 C29.34168945 20.22520508 29.34168945 20.22520508 31.02929688 20.26367188 C32.6293457 20.27817383 32.6293457 20.27817383 34.26171875 20.29296875 C35.24100342 20.3086792 36.22028809 20.32438965 37.22924805 20.34057617 C40.50774728 19.93758856 42.37781627 18.98516105 45 17 C45.58350505 14.45709375 45.58350505 14.45709375 45 12 C42.26944208 9.26944208 40.23628963 9.05470829 36.43457031 8.88647461 C35.02062988 8.89432983 35.02062988 8.89432983 33.578125 8.90234375 C32.55332031 8.90556641 31.52851562 8.90878906 30.47265625 8.91210938 C28.87744141 8.92467773 28.87744141 8.92467773 27.25 8.9375 C26.17105469 8.94201172 25.09210937 8.94652344 23.98046875 8.95117188 C21.32028875 8.96294258 18.66013731 8.98087761 16 9 Z " fill="#FFFFFF" transform="translate(607,641)"/>
<path d="M0 0 C0.89588837 0.00424484 1.79177673 0.00848969 2.71481323 0.01286316 C5.53676229 0.02946721 8.35795949 0.06708282 11.1796875 0.10546875 C13.10936458 0.12053929 15.03905302 0.13422351 16.96875 0.14648438 C21.66434597 0.17931045 26.35938991 0.23096259 31.0546875 0.29296875 C31.0546875 2.93296875 31.0546875 5.57296875 31.0546875 8.29296875 C30.09691406 8.30755127 29.13914062 8.32213379 28.15234375 8.3371582 C24.56620739 8.39555238 20.98067224 8.47277859 17.39501953 8.55541992 C15.84922107 8.58847737 14.30330746 8.61656778 12.75732422 8.6394043 C1.01588504 8.59949327 1.01588504 8.59949327 -9.9453125 12.29296875 C-12.80701051 16.94322802 -13.53485142 20.88886202 -12.9453125 26.29296875 C-11.67118583 29.97377912 -10.7415915 31.7675758 -7.4765625 33.921875 C-2.80106224 35.73725176 1.45509096 35.85628125 6.4296875 35.98046875 C7.81994141 36.03170898 7.81994141 36.03170898 9.23828125 36.08398438 C11.51000594 36.16595382 13.78232517 36.23115026 16.0546875 36.29296875 C16.0546875 33.32296875 16.0546875 30.35296875 16.0546875 27.29296875 C10.1146875 27.29296875 4.1746875 27.29296875 -1.9453125 27.29296875 C-1.9453125 24.32296875 -1.9453125 21.35296875 -1.9453125 18.29296875 C8.9446875 18.29296875 19.8346875 18.29296875 31.0546875 18.29296875 C31.0546875 27.20296875 31.0546875 36.11296875 31.0546875 45.29296875 C25.54069611 45.36221422 20.02824151 45.42183352 14.51416016 45.45776367 C12.64236307 45.4727574 10.77060056 45.49315925 8.89892578 45.51928711 C-15.8695096 45.85613783 -15.8695096 45.85613783 -24.9453125 38.29296875 C-30.16982529 31.37401938 -30.51413727 25.73947996 -29.9453125 17.29296875 C-28.94953889 11.7842395 -26.58232485 8.0097575 -22.09957886 4.63996887 C-15.37652144 0.43623653 -7.73185645 -0.14164368 0 0 Z " fill="#FFFFFF" transform="translate(836.9453125,643.70703125)"/>
<path d="M0 0 C0.33 0 0.66 0 1 0 C0.57617926 8.50682346 -0.82218603 16.3102137 -3.125 24.5 C-3.59196289 26.18959839 -3.59196289 26.18959839 -4.06835938 27.91333008 C-8.46281412 43.53154941 -13.75899565 58.47397303 -21 73 C-30.99548791 68.20335751 -40.74945975 63.01577502 -50.4375 57.625 C-51.55761475 57.00608887 -52.67772949 56.38717773 -53.83178711 55.74951172 C-54.8760083 55.16443848 -55.92022949 54.57936523 -56.99609375 53.9765625 C-57.93638428 53.45143066 -58.8766748 52.92629883 -59.84545898 52.38525391 C-62 51 -62 51 -63 49 C-61.89785156 48.34515625 -60.79570312 47.6903125 -59.66015625 47.015625 C-38.48238538 34.32214562 -15.03113825 20.05702968 0 0 Z " fill="#0081BD" transform="translate(561,331)"/>
<path d="M0 0 C1.9251116 0.02009883 3.85024349 0.03834361 5.77539062 0.0546875 C10.45493504 0.09840786 15.13348973 0.16724762 19.8125 0.25 C19.8125 2.89 19.8125 5.53 19.8125 8.25 C18.85472656 8.26458252 17.89695312 8.27916504 16.91015625 8.29418945 C13.32401989 8.35258363 9.73848474 8.42980984 6.15283203 8.51245117 C4.60703357 8.54550862 3.06111996 8.57359903 1.51513672 8.59643555 C-10.23448485 8.54043438 -10.23448485 8.54043438 -21.1875 12.25 C-24.28470244 16.91366233 -24.68381556 21.74453655 -23.8359375 27.19921875 C-22.7928606 30.49810654 -20.88639647 32.19369793 -18.1875 34.25 C-15.3972333 35.1800889 -13.42220458 35.43698769 -10.51953125 35.56640625 C-9.18051758 35.62924805 -9.18051758 35.62924805 -7.81445312 35.69335938 C-6.88568359 35.73267578 -5.95691406 35.77199219 -5 35.8125 C-4.05962891 35.85568359 -3.11925781 35.89886719 -2.15039062 35.94335938 C0.17040188 36.04938543 2.49143177 36.15019194 4.8125 36.25 C4.8125 33.28 4.8125 30.31 4.8125 27.25 C-1.1275 27.25 -7.0675 27.25 -13.1875 27.25 C-13.1875 24.28 -13.1875 21.31 -13.1875 18.25 C-2.2975 18.25 8.5925 18.25 19.8125 18.25 C19.8125 27.16 19.8125 36.07 19.8125 45.25 C14.29850861 45.31924547 8.78605401 45.37886477 3.27197266 45.41479492 C1.40017557 45.42978865 -0.47158694 45.4501905 -2.34326172 45.47631836 C-28.10482581 45.82667563 -28.10482581 45.82667563 -37.1875 37.25 C-41.4474648 31.42804811 -41.91098035 25.2838367 -41.1875 18.25 C-39.94876569 13.5374238 -38.33343278 9.56955895 -35.125 5.875 C-23.56403405 -0.52042798 -12.8750915 -0.23459556 0 0 Z " fill="#FFFFFF" transform="translate(753.1875,643.75)"/>
<path d="M0 0 C5.28 0 10.56 0 16 0 C16 6.27 16 12.54 16 19 C24.25 19 32.5 19 41 19 C41 12.73 41 6.46 41 0 C46.28 0 51.56 0 57 0 C57 15.84 57 31.68 57 48 C51.72 48 46.44 48 41 48 C41 41.4 41 34.8 41 28 C32.75 28 24.5 28 16 28 C16 34.6 16 41.2 16 48 C10.72 48 5.44 48 0 48 C0 32.16 0 16.32 0 0 Z " fill="#FFFFFF" transform="translate(291,641)"/>
<path d="M0 0 C4.41411295 0.24361667 7.616599 1.28922609 10.82958984 4.39160156 C14.69976051 9.33238838 17.47392461 14.86420765 20.30810547 20.44042969 C23.30077244 26.07338033 26.80853354 31.38400511 30.25 36.75 C31.53082144 38.77041533 32.80723108 40.79363781 34.078125 42.8203125 C34.61856445 43.67641113 35.15900391 44.53250977 35.71582031 45.41455078 C37 47.625 37 47.625 38 50.625 C32.06 50.625 26.12 50.625 20 50.625 C15 41.875 15 41.875 15 39.625 C10.83566039 39.52022231 6.67736799 39.48179162 2.51220703 39.50292969 C1.09800645 39.5009911 -0.31629025 39.48139882 -1.72998047 39.44335938 C-6.28991144 39.32767402 -10.56975048 39.38516425 -15 40.625 C-17.16580489 43.08717264 -18.32953842 45.41802074 -19.67822266 48.39404297 C-21 50.625 -21 50.625 -22.93505859 51.44580078 C-25.15710689 51.60671642 -27.16346852 51.50994493 -29.375 51.25 C-30.11105469 51.20488281 -30.84710938 51.15976562 -31.60546875 51.11328125 C-33.4072023 50.99628556 -35.20469853 50.81689683 -37 50.625 C-36.35010514 47.27344043 -35.08266311 44.83912739 -33.296875 41.94140625 C-32.73581055 41.02302979 -32.17474609 40.10465332 -31.59667969 39.15844727 C-30.34647368 37.14710976 -29.09177989 35.13855601 -27.83300781 33.13256836 C-24.61553927 27.98501987 -21.55044235 22.8579327 -18.8125 17.4375 C-10.02544231 0.54330214 -10.02544231 0.54330214 0 0 Z M-1 13.625 C-2.33858524 15.91374173 -3.67101014 18.20569656 -5 20.5 C-5.3815625 21.15097656 -5.763125 21.80195312 -6.15625 22.47265625 C-8.27551156 25.82850201 -8.27551156 25.82850201 -9 29.625 C-3.39 29.625 2.22 29.625 8 29.625 C6.51482163 25.16946488 5.30790719 22.12884813 2.9375 18.25 C2.41027344 17.37601563 1.88304687 16.50203125 1.33984375 15.6015625 C0.89769531 14.94929687 0.45554687 14.29703125 0 13.625 C-0.33 13.625 -0.66 13.625 -1 13.625 Z " fill="#FFFFFF" transform="translate(87,638.375)"/>
<path d="M0 0 C5.28 0 10.56 0 16 0 C16.02578125 2.40796875 16.0515625 4.8159375 16.078125 7.296875 C16.11655767 9.63358156 16.16171365 11.97006835 16.20751953 14.30664062 C16.23571347 15.92827837 16.25693594 17.55005313 16.27099609 19.171875 C16.29244872 21.50592105 16.33910575 23.83832261 16.390625 26.171875 C16.39185364 26.89493835 16.39308228 27.61800171 16.39434814 28.36297607 C16.49451587 31.81932525 16.75123661 33.68110854 18.90527344 36.44238281 C23.68428109 39.99600389 30.270568 39.49083919 36 39 C38.83445484 38.34070373 40.44239797 37.54521789 43 36 C45.17113333 31.96483143 45.30224807 28.25895307 45.4140625 23.73046875 C45.43342865 23.04946609 45.4527948 22.36846344 45.4727478 21.66682434 C45.53218132 19.50717407 45.578782 17.34746943 45.625 15.1875 C45.66321328 13.71677456 45.70226694 12.24607071 45.7421875 10.77539062 C45.83942418 7.18371068 45.9192755 3.59224033 46 0 C50.95 0 55.9 0 61 0 C61.07442006 5.01705721 61.12872908 10.03378972 61.16479492 15.05126953 C61.17983738 16.75640463 61.20027653 18.46150132 61.22631836 20.16650391 C61.26290284 22.62412012 61.27977173 25.08122269 61.29296875 27.5390625 C61.30845261 28.29555084 61.32393646 29.05203918 61.33988953 29.83145142 C61.34139481 34.61643321 60.6273491 37.8458096 58 42 C55.66015625 43.64453125 55.66015625 43.64453125 53.0625 44.8125 C52.20785156 45.21082031 51.35320312 45.60914063 50.47265625 46.01953125 C44.07167161 48.5576784 37.75053285 48.25782076 30.9375 48.3125 C29.75994141 48.34150391 28.58238281 48.37050781 27.36914062 48.40039062 C18.72614304 48.46257046 9.53612289 47.65136114 2.875 41.5 C-0.52678822 36.96428237 -0.13578478 32.45628044 -0.09765625 26.953125 C-0.0962413 26.18192322 -0.09482635 25.41072144 -0.09336853 24.6161499 C-0.08778534 22.16072662 -0.07523595 19.70539558 -0.0625 17.25 C-0.05748283 15.58203257 -0.0529203 13.91406371 -0.04882812 12.24609375 C-0.03867366 8.16399864 -0.01909507 4.0821022 0 0 Z " fill="#FFFFFF" transform="translate(361,641)"/>
<path d="M0 0 C3.78428902 0.21809228 6.90934278 0.79580232 10.0390625 3.078125 C11.99508215 5.756812 13.38488616 8.53298841 14.875 11.5 C16.29654427 13.93405679 17.75719431 16.34218394 19.22070312 18.7512207 C20.80437151 21.3616017 22.3616077 23.98655212 23.91796875 26.61328125 C26.93088601 31.65036558 30.16164057 36.48940748 33.546875 41.28515625 C34.875 43.5 34.875 43.5 34.875 46.5 C32.3261873 46.77243841 29.8064013 46.9683029 27.25 47.125 C26.53714844 47.20878906 25.82429687 47.29257812 25.08984375 47.37890625 C22.67448236 47.48970264 21.1139317 47.44682873 18.875 46.5 C17.50048828 44.26904297 17.50048828 44.26904297 16.21875 41.53125 C14.88985015 38.73607845 14.88985015 38.73607845 12.875 36.5 C8.25351417 35.08513637 3.80000666 35.23499981 -1 35.375 C-2.26070312 35.37242187 -3.52140625 35.36984375 -4.8203125 35.3671875 C-7.92490154 35.3671875 -11.02183392 35.41290028 -14.125 35.5 C-14.393125 36.20125 -14.66125 36.9025 -14.9375 37.625 C-16.18627515 40.64835036 -17.66212018 43.57424036 -19.125 46.5 C-24.405 46.5 -29.685 46.5 -35.125 46.5 C-33.53714593 42.53036482 -31.96833175 39.40841524 -29.74609375 35.81640625 C-29.07707031 34.72956543 -28.40804687 33.64272461 -27.71875 32.52294922 C-26.26912494 30.1904567 -24.81029766 27.86389905 -23.34765625 25.53955078 C-22.61559359 24.37420671 -21.88382023 23.20868085 -21.15234375 22.04296875 C-20.79413544 21.47306213 -20.43592712 20.90315552 -20.06686401 20.315979 C-18.10434338 17.16622913 -16.28972842 13.99381039 -14.62890625 10.67578125 C-11.04726858 3.71002581 -8.01584562 0.2229645 0 0 Z M-1.125 12.5 C-2.46092797 14.8110361 -3.79384431 17.12371755 -5.125 19.4375 C-5.5065625 20.09685547 -5.888125 20.75621094 -6.28125 21.43554688 C-8.25009047 24.29768502 -8.25009047 24.29768502 -9.125 27.5 C-3.515 27.5 2.095 27.5 7.875 27.5 C6.3629538 23.71988449 4.88837003 20.63028198 2.8125 17.1875 C2.02166016 15.86298828 2.02166016 15.86298828 1.21484375 14.51171875 C0.77269531 13.84785156 0.33054687 13.18398438 -0.125 12.5 C-0.455 12.5 -0.785 12.5 -1.125 12.5 Z " fill="#FFFFFF" transform="translate(906.125,642.5)"/>
<path d="M0 0 C5.28 0 10.56 0 16 0 C16.33 11.88 16.66 23.76 17 36 C21.71152195 37.57050732 24.33755322 38.26817175 29.0546875 38.4140625 C30.16328125 38.45273437 31.271875 38.49140625 32.4140625 38.53125 C34.12722656 38.57765625 34.12722656 38.57765625 35.875 38.625 C37.0403125 38.66367187 38.205625 38.70234375 39.40625 38.7421875 C42.27067864 38.83610319 45.13510692 38.92177983 48 39 C48 41.97 48 44.94 48 48 C44.01647832 48.04987075 40.0330805 48.08593964 36.04931641 48.10986328 C34.03671881 48.12472879 32.02420812 48.150157 30.01171875 48.17578125 C14.01274412 48.25617811 14.01274412 48.25617811 6.6875 43.8125 C6.05199219 43.44769531 5.41648438 43.08289063 4.76171875 42.70703125 C1.12545004 39.18364006 0.08395402 34.96526065 -0.34057617 30.08422852 C-0.34010916 28.68236468 -0.32363819 27.28043463 -0.29296875 25.87890625 C-0.28660149 24.76176491 -0.28660149 24.76176491 -0.28010559 23.62205505 C-0.26345724 21.26848527 -0.22583375 18.91580621 -0.1875 16.5625 C-0.17243515 14.95639267 -0.15874991 13.35027177 -0.14648438 11.74414062 C-0.11616437 7.82881688 -0.05742292 3.9153926 0 0 Z " fill="#FFFFFF" transform="translate(127,641)"/>
<path d="M0 0 C5.61 0 11.22 0 17 0 C17 15.84 17 31.68 17 48 C11.39 48 5.78 48 0 48 C0 32.16 0 16.32 0 0 Z " fill="#FFFFFF" transform="translate(577,641)"/>
<path d="M0 0 C2 2 2 2 2.06005859 4.38964844 C1.34577779 11.79042497 0.1863537 18.9822703 -1.375 26.25 C-1.58382812 27.27351563 -1.79265625 28.29703125 -2.0078125 29.3515625 C-2.94917693 33.8173035 -3.93209135 38.06769045 -5.6640625 42.296875 C-8.39605837 49.86977583 -6.36448944 56.50431037 -4.5625 64.0625 C-2.56733779 72.76079823 -1.17057337 81.05265135 -1 90 C-3.9964711 87.09433105 -6.78824143 84.11209701 -9.5 80.9375 C-12.10890999 77.91755823 -14.75781405 75.35795342 -18 73 C-18.103125 73.886875 -18.20625 74.77375 -18.3125 75.6875 C-19.01190702 79.0573702 -20.08742511 81.17271538 -22 84 C-22.99 83.505 -22.99 83.505 -24 83 C-22.65700016 78.73921372 -21.05167685 74.64897053 -19.33496094 70.53076172 C-7.08241692 41.67738406 -7.08241692 41.67738406 -3 11 C-3.56847656 11.64066406 -4.13695312 12.28132813 -4.72265625 12.94140625 C-5.49480469 13.80636719 -6.26695312 14.67132813 -7.0625 15.5625 C-7.81660156 16.40941406 -8.57070313 17.25632812 -9.34765625 18.12890625 C-15.26678358 24.53620903 -21.356083 30.05421377 -28.375 35.25 C-29.68295532 36.2234436 -29.68295532 36.2234436 -31.01733398 37.21655273 C-42.47994707 45.66602908 -54.31209222 53.50532582 -67 60 C-67 58.68 -67 57.36 -67 56 C-64.55078125 54.18359375 -64.55078125 54.18359375 -61.3125 52.4375 C-60.25675781 51.85871094 -59.20101563 51.27992188 -58.11328125 50.68359375 C-57.08589844 50.12800781 -56.05851562 49.57242188 -55 49 C-42.13040721 41.57205175 -28.53254555 32.53254555 -18 22 C-16.948125 20.9790625 -16.948125 20.9790625 -15.875 19.9375 C-9.74245413 13.76866687 -4.38278651 7.53291431 0 0 Z " fill="#014F72" transform="translate(564,321)"/>
<path d="M0 0 C5.28 0 10.56 0 16 0 C16 14.85 16 29.7 16 45 C10.72 45 5.44 45 0 45 C0 30.15 0 15.3 0 0 Z " fill="#FFFFFF" transform="translate(783,644)"/>
<path d="M0 0 C3.85368781 0.15192298 3.85368781 0.15192298 6.9375 -0.6875 C10.7068727 -1.07212987 12.07789384 -0.33768492 15 2 C15.92188461 4.76565382 16.11785222 6.38283702 16.09765625 9.23046875 C16.09443359 10.03291016 16.09121094 10.83535156 16.08789062 11.66210938 C16.07951172 12.49548828 16.07113281 13.32886719 16.0625 14.1875 C16.05798828 15.03248047 16.05347656 15.87746094 16.04882812 16.74804688 C16.03705403 18.83206155 16.0191189 20.91603977 16 23 C14.35 23 12.7 23 11 23 C10.505 13.595 10.505 13.595 10 4 C8.02 4.66 6.04 5.32 4 6 C3.67 11.61 3.34 17.22 3 23 C1.35 23 -0.3 23 -2 23 C-2.33 17.06 -2.66 11.12 -3 5 C-4.65 5 -6.3 5 -8 5 C-9.585869 8.171738 -9.37866445 11.63513822 -9.5625 15.125 C-9.60568359 15.87910156 -9.64886719 16.63320313 -9.69335938 17.41015625 C-9.7994832 19.27321888 -9.90025001 21.13658524 -10 23 C-11.65 23 -13.3 23 -15 23 C-15 15.41 -15 7.82 -15 0 C-12.525 0.495 -12.525 0.495 -10 1 C-9.360625 0.67 -8.72125 0.34 -8.0625 0 C-5.13242732 -1.4206413 -3.12871989 -0.65181664 0 0 Z " fill="#FFFFFF" transform="translate(731,725)"/>
<path d="M0 0 C3.0525 -0.061875 6.105 -0.12375 9.25 -0.1875 C10.68327637 -0.22846802 10.68327637 -0.22846802 12.14550781 -0.27026367 C18.3181658 -0.33099761 18.3181658 -0.33099761 21.55078125 1.23828125 C24.17693893 4.43072631 24.19730063 7.98352283 24 12 C22.66498121 15.05147152 21.97626566 16.51186717 19 18 C16.62597499 18.07116382 14.24999323 18.08409085 11.875 18.0625 C10.59367187 18.05347656 9.31234375 18.04445313 7.9921875 18.03515625 C6.51105469 18.01775391 6.51105469 18.01775391 5 18 C5 22.29 5 26.58 5 31 C3.35 31 1.7 31 0 31 C0 20.77 0 10.54 0 0 Z M5 4 C5 7.3 5 10.6 5 14 C11.79254262 14.68545151 11.79254262 14.68545151 17.625 12 C18.07875 11.34 18.5325 10.68 19 10 C17.91215032 6.75016865 17.91215032 6.75016865 16 4 C14.14712498 3.92773498 12.29166122 3.9161878 10.4375 3.9375 C9.42558594 3.94652344 8.41367187 3.95554687 7.37109375 3.96484375 C6.58863281 3.97644531 5.80617188 3.98804688 5 4 Z " fill="#FFFFFF" transform="translate(421,717)"/>
<path d="M0 0 C4.5478125 -0.1546875 4.5478125 -0.1546875 9.1875 -0.3125 C10.13391357 -0.35802002 11.08032715 -0.40354004 12.05541992 -0.45043945 C16.46246268 -0.52294679 18.42392231 -0.42528734 22.07421875 2.26953125 C24.41558251 5.58923362 24.78037041 7.13555512 24.453125 11.0625 C24 13 24 13 22.375 16 C16.92580588 19.22915207 11.18104896 18.37638322 5 18 C5 22.29 5 26.58 5 31 C3.35 31 1.7 31 0 31 C0 20.77 0 10.54 0 0 Z M5 4 C5 7.3 5 10.6 5 14 C6.5675 14.061875 8.135 14.12375 9.75 14.1875 C10.63171875 14.22230469 11.5134375 14.25710938 12.421875 14.29296875 C15.44671583 13.94923684 16.75583602 12.99772541 19 11 C18.65772428 8.02934491 18.65772428 8.02934491 18 5 C15.35541621 3.67770811 13.32238699 3.90322806 10.375 3.9375 C8.87066406 3.95103516 8.87066406 3.95103516 7.3359375 3.96484375 C6.17964844 3.98224609 6.17964844 3.98224609 5 4 Z " fill="#FFFFFF" transform="translate(137,717)"/>
<path d="M0 0 C1.65 0 3.3 0 5 0 C5 10.23 5 20.46 5 31 C-9 31 -9 31 -12.3125 28.625 C-15.47157279 23.71088676 -15.49985825 19.77109073 -15 14 C-13.66863288 10.63654622 -12.77326782 9.45978087 -9.6875 7.625 C-6.48766313 6.88085189 -4.17645135 7.26129038 -1 8 C-0.67 5.36 -0.34 2.72 0 0 Z M-8 12 C-10.45416273 15.6812441 -10.59384154 18.72261963 -10 23 C-8.66169042 25.4595774 -8.66169042 25.4595774 -7 27 C-3.06924356 26.42547254 -3.06924356 26.42547254 0 24 C0.31863689 21.89410923 0.31863689 21.89410923 0.25 19.5625 C0.25515625 18.78003906 0.2603125 17.99757813 0.265625 17.19140625 C0.13176831 14.70955893 0.13176831 14.70955893 -2 12 C-5 11.5 -5 11.5 -8 12 Z " fill="#FFFFFF" transform="translate(848,717)"/>
<path d="M0 0 C2.17804383 1.61580679 2.90028972 2.49807052 3.43237305 5.17651367 C3.45855713 5.99869385 3.48474121 6.82087402 3.51171875 7.66796875 C3.56489258 9.00698242 3.56489258 9.00698242 3.61914062 10.37304688 C3.64169922 11.30181641 3.66425781 12.23058594 3.6875 13.1875 C3.73874023 14.59805664 3.73874023 14.59805664 3.79101562 16.03710938 C3.87348218 18.35795393 3.94263403 20.67842148 4 23 C1.33333333 23 -1.33333333 23 -4 23 C-4.7115625 23.02320313 -5.423125 23.04640625 -6.15625 23.0703125 C-6.9296875 23.08835937 -7.703125 23.10640625 -8.5 23.125 C-9.2734375 23.14820313 -10.046875 23.17140625 -10.84375 23.1953125 C-13 23 -13 23 -16 21 C-16.9375 17.625 -16.9375 17.625 -17 14 C-15.34060239 11.20919493 -13.87959262 10.27292324 -10.796875 9.31640625 C-7.85364919 8.62807118 -5.0294069 8 -2 8 C-2.33 7.01 -2.66 6.02 -3 5 C-5.94389782 3.82244087 -6.89953913 3.96651304 -10 5 C-10.33 5.99 -10.66 6.98 -11 8 C-12.65 7.67 -14.3 7.34 -16 7 C-15.9375 4.6875 -15.9375 4.6875 -15 2 C-9.67111191 -1.26258454 -6.03569303 -1.40832837 0 0 Z M-7 12.8125 C-8.0828125 13.03873047 -8.0828125 13.03873047 -9.1875 13.26953125 C-10.0846875 13.63111328 -10.0846875 13.63111328 -11 14 C-11.33 14.99 -11.66 15.98 -12 17 C-11.34 17.66 -10.68 18.32 -10 19 C-6.40320934 18.67673447 -6.40320934 18.67673447 -3 18 C-2.67 16.02 -2.34 14.04 -2 12 C-3.71289408 12 -5.33172942 12.44607628 -7 12.8125 Z " fill="#FFFFFF" transform="translate(547,725)"/>
<path d="M0 0 C2.17804383 1.61580679 2.90028972 2.49807052 3.43237305 5.17651367 C3.45855713 5.99869385 3.48474121 6.82087402 3.51171875 7.66796875 C3.56489258 9.00698242 3.56489258 9.00698242 3.61914062 10.37304688 C3.64169922 11.30181641 3.66425781 12.23058594 3.6875 13.1875 C3.73874023 14.59805664 3.73874023 14.59805664 3.79101562 16.03710938 C3.87348218 18.35795393 3.94263403 20.67842148 4 23 C1.33333333 23 -1.33333333 23 -4 23 C-5.04994141 23.06960938 -5.04994141 23.06960938 -6.12109375 23.140625 C-9.93017214 23.3204803 -12.28996497 23.4226399 -15.625 21.4375 C-17 19 -17 19 -17.0625 15.4375 C-16 12 -16 12 -14 10.125 C-10.03505049 8.63814393 -6.20607595 8.26574336 -2 8 C-2.33 7.01 -2.66 6.02 -3 5 C-5.94389782 3.82244087 -6.89953913 3.96651304 -10 5 C-10.33 5.99 -10.66 6.98 -11 8 C-12.65 7.67 -14.3 7.34 -16 7 C-15.9375 4.6875 -15.9375 4.6875 -15 2 C-9.67111191 -1.26258454 -6.03569303 -1.40832837 0 0 Z M-7 12.8125 C-8.0828125 13.03873047 -8.0828125 13.03873047 -9.1875 13.26953125 C-10.0846875 13.63111328 -10.0846875 13.63111328 -11 14 C-11.33 14.99 -11.66 15.98 -12 17 C-11.34 17.66 -10.68 18.32 -10 19 C-6.40320934 18.67673447 -6.40320934 18.67673447 -3 18 C-2.67 16.02 -2.34 14.04 -2 12 C-3.71289408 12 -5.33172942 12.44607628 -7 12.8125 Z " fill="#FFFFFF" transform="translate(190,725)"/>
<path d="M0 0 C2.17804383 1.61580679 2.90028972 2.49807052 3.43237305 5.17651367 C3.45855713 5.99869385 3.48474121 6.82087402 3.51171875 7.66796875 C3.56489258 9.00698242 3.56489258 9.00698242 3.61914062 10.37304688 C3.64169922 11.30181641 3.66425781 12.23058594 3.6875 13.1875 C3.73874023 14.59805664 3.73874023 14.59805664 3.79101562 16.03710938 C3.87348218 18.35795393 3.94263403 20.67842148 4 23 C2.35 23 0.7 23 -1 23 C-1 22.34 -1 21.68 -1 21 C-1.495 21.33 -1.99 21.66 -2.5 22 C-6.0441367 23.41765468 -9.23418854 23.60838263 -13 23 C-15.5625 21.4375 -15.5625 21.4375 -17 19 C-17.0625 15.4375 -17.0625 15.4375 -16 12 C-12.0859404 8.33056912 -7.12703377 8.32393024 -2 8 C-2.33 7.01 -2.66 6.02 -3 5 C-5.94389782 3.82244087 -6.89953913 3.96651304 -10 5 C-11.66710346 6.49985609 -11.66710346 6.49985609 -13 8 C-13.99 7.67 -14.98 7.34 -16 7 C-15.9375 4.6875 -15.9375 4.6875 -15 2 C-9.67111191 -1.26258454 -6.03569303 -1.40832837 0 0 Z M-3 12 C-5.64 12.66 -8.28 13.32 -11 14 C-11.33 15.32 -11.66 16.64 -12 18 C-10.89471558 19.31968178 -10.89471558 19.31968178 -8.125 19.25 C-5.05598773 19.25261465 -5.05598773 19.25261465 -3.0625 17.75 C-2.711875 17.1725 -2.36125 16.595 -2 16 C-2.33 14.68 -2.66 13.36 -3 12 Z " fill="#FFFFFF" transform="translate(325,725)"/>
<path d="M0 0 C2.43293726 3.74298039 2.36428713 7.06788124 2.625 11.5 C-2.655 11.5 -7.935 11.5 -13.375 11.5 C-12.715 12.82 -12.055 14.14 -11.375 15.5 C-8.46495097 16.58223366 -8.46495097 16.58223366 -5.375 16.5 C-3.79166667 15.08333333 -3.79166667 15.08333333 -2.375 13.5 C0.3125 13.3125 0.3125 13.3125 2.625 13.5 C1.7592843 16.16929007 0.90308762 18.17741836 -0.9375 20.3125 C-4.70608188 22.14847579 -8.26683565 22.17370966 -12.375 21.5 C-15.87390004 19.38608123 -17.08078686 18.38263941 -18.375 14.5 C-18.90422596 9.06525651 -18.87923369 4.94768123 -15.375 0.5 C-11.06109306 -3.81390694 -5.00444608 -3.16070278 0 0 Z M-13.375 5.5 C-13.375 6.16 -13.375 6.82 -13.375 7.5 C-9.745 7.5 -6.115 7.5 -2.375 7.5 C-3.73075147 2.62878065 -3.73075147 2.62878065 -6.1875 1.4375 C-9.53740962 1.5332117 -11.03951953 3.22939399 -13.375 5.5 Z " fill="#FFFFFF" transform="translate(818.375,726.5)"/>
<path d="M0 0 C2.4375 1.5 2.4375 1.5 4 4 C4.61214036 7.03454198 4.81721446 9.89264589 5 13 C-0.28 13 -5.56 13 -11 13 C-10.01 14.65 -9.02 16.3 -8 18 C-5.5 18.66666667 -5.5 18.66666667 -3 18 C-2.505 17.505 -2.01 17.01 -1.5 16.5 C0 15 0 15 2.6875 14.8125 C3.450625 14.874375 4.21375 14.93625 5 15 C4.1342843 17.66929007 3.27808762 19.67741836 1.4375 21.8125 C-2.3277314 23.6468435 -5.89535111 23.68044982 -10 23 C-12.87029869 21.20606332 -14.49131638 20.01736724 -16 17 C-16.50187235 12.61220177 -17.00725149 8.01450297 -14.98828125 3.9765625 C-10.68747802 -1.31872076 -6.32587099 -1.59422152 0 0 Z M-8.1875 3.625 C-10.4555109 5.04747363 -10.4555109 5.04747363 -11 9 C-7.37 9 -3.74 9 0 9 C-1.57224649 5.09416588 -1.57224649 5.09416588 -3.875 3.625 C-6.00880142 2.79159218 -6.00880142 2.79159218 -8.1875 3.625 Z " fill="#FFFFFF" transform="translate(601,725)"/>
<path d="M0 0 C2.93423195 1.79646854 4.47205355 2.9441071 6 6 C6.51816286 10.79937735 6.71207367 14.73409126 4.3125 19 C0.62029705 22.19325661 -2.15164578 23.23824378 -7 22.9375 C-10.06338842 22.42210951 -11.25485984 21.82647841 -13.9375 20 C-16.64950537 16.05526492 -17.44507755 12.76988767 -17 8 C-13.03164158 0.20501024 -8.23789585 -1.10364155 0 0 Z M-10 4 C-7.03 4 -4.06 4 -1 4 C-2.82703227 1.7508092 -2.82703227 1.7508092 -5.5 1.75 C-8.17296773 1.7508092 -8.17296773 1.7508092 -10 4 Z M-1 4 C-1.08121924 5.60332791 -1.13929134 7.20784026 -1.1875 8.8125 C-1.22230469 9.70582031 -1.25710938 10.59914062 -1.29296875 11.51953125 C-0.95081002 14.41647515 -0.24606427 15.22555028 2 17 C3.71928713 14.37050204 4.01045637 13.12809053 3.75 9.9375 C3.13162501 6.83817867 3.13162501 6.83817867 1 4 C0.34 4 -0.32 4 -1 4 Z M-12 5 C-14.31282587 8.46923881 -14.42478586 9.92205575 -14 14 C-13.01 14.99 -12.02 15.98 -11 17 C-11 13.04 -11 9.08 -11 5 C-11.33 5 -11.66 5 -12 5 Z M-8 7 C-8 7.99 -8 8.98 -8 10 C-6.35 9.67 -4.7 9.34 -3 9 C-3 8.34 -3 7.68 -3 7 C-4.65 7 -6.3 7 -8 7 Z M-8 12 C-8 13.98 -8 15.96 -8 18 C-8.99 18.495 -8.99 18.495 -10 19 C-7.23749964 20.38125018 -5.05268901 20.19079306 -2 20 C-1.34 19.34 -0.68 18.68 0 18 C-0.66 18 -1.32 18 -2 18 C-2.2475 17.195625 -2.495 16.39125 -2.75 15.5625 C-3.72238859 12.828919 -3.72238859 12.828919 -6.125 12.1875 C-6.74375 12.125625 -7.3625 12.06375 -8 12 Z " fill="#FFFFFF" transform="translate(706,160)"/>
<path d="M0 0 C2.56341194 4.70581317 3.43994323 9.67397282 4.5625 14.875 C4.78574951 15.90117432 5.00899902 16.92734863 5.23901367 17.98461914 C6.85229807 25.6726537 7.84999735 33.1316794 8 41 C4.34177798 37.4526332 0.98336055 33.72300269 -2.3515625 29.87109375 C-4.15332526 27.82596494 -6.033852 25.88750208 -8 24 C-5.69356492 15.86184696 -2.89571216 7.94317882 0 0 Z " fill="#6E4A21" transform="translate(555,370)"/>
<path d="M0 0 C1.32 0 2.64 0 4 0 C4.33 4.62 4.66 9.24 5 14 C5.845625 13.01 6.69125 12.02 7.5625 11 C10.26449693 8.25286231 10.78228878 8.02106883 14.875 7.625 C16.421875 7.810625 16.421875 7.810625 18 8 C17.3503125 8.68835938 17.3503125 8.68835938 16.6875 9.390625 C16.130625 10.00421875 15.57375 10.6178125 15 11.25 C14.443125 11.85328125 13.88625 12.4565625 13.3125 13.078125 C11.62402557 15.162653 11.62402557 15.162653 12 19 C13.52130437 21.58231235 13.52130437 21.58231235 15.5 24.125 C19 28.80555556 19 28.80555556 19 31 C16.375 31.5625 16.375 31.5625 13 31 C11.15147611 28.77396066 9.73659235 26.47664473 8.296875 23.96875 C7.86890625 23.3190625 7.4409375 22.669375 7 22 C6.34 22 5.68 22 5 22 C4.67 24.97 4.34 27.94 4 31 C2.68 31 1.36 31 0 31 C0 20.77 0 10.54 0 0 Z " fill="#FFFFFF" transform="translate(208,717)"/>
<path d="M0 0 C2 1.3125 2 1.3125 3 3 C3 4.32 3 5.64 3 7 C0.6875 7.1875 0.6875 7.1875 -2 7 C-3 6 -4 5 -5 4 C-7.13803054 4.07606836 -7.13803054 4.07606836 -9 5 C-9.33 5.66 -9.66 6.32 -10 7 C-9.24074219 7.18175781 -8.48148437 7.36351562 -7.69921875 7.55078125 C-6.70535156 7.80214844 -5.71148437 8.05351563 -4.6875 8.3125 C-3.70136719 8.55613281 -2.71523438 8.79976562 -1.69921875 9.05078125 C1.03917634 10.01377692 2.33473535 10.64467705 4 13 C3.93526873 16.624951 3.7511751 19.02973216 1.5 21.9375 C-2.34376707 23.571101 -5.89979715 23.79523507 -10 23 C-13.0625 20.6875 -13.0625 20.6875 -15 18 C-15 17.01 -15 16.02 -15 15 C-12.625 14.8125 -12.625 14.8125 -10 15 C-9.34 15.99 -8.68 16.98 -8 18 C-5.41619823 18.25030977 -5.41619823 18.25030977 -3 18 C-2.67 17.01 -2.34 16.02 -2 15 C-2.68707031 14.82984375 -3.37414062 14.6596875 -4.08203125 14.484375 C-4.98308594 14.24203125 -5.88414062 13.9996875 -6.8125 13.75 C-8.15248047 13.40195312 -8.15248047 13.40195312 -9.51953125 13.046875 C-12.42632368 11.82007127 -13.45638276 10.72433109 -15 8 C-15.0625 4.9375 -15.0625 4.9375 -14 2 C-9.20068959 -1.62874689 -5.58252288 -1.28123476 0 0 Z " fill="#FFFFFF" transform="translate(271,725)"/>
<path d="M0 0 C1.72240952 2.27164806 1.67002446 3.58382394 1.6159668 6.4128418 C1.60629883 7.30551758 1.59663086 8.19819336 1.58666992 9.11791992 C1.5615332 10.04668945 1.53639648 10.97545898 1.51049805 11.93237305 C1.49019531 13.34292969 1.49019531 13.34292969 1.46948242 14.78198242 C1.43412901 17.10352343 1.38478479 19.42390958 1.32299805 21.74487305 C-0.32700195 21.74487305 -1.97700195 21.74487305 -3.67700195 21.74487305 C-4.00700195 15.80487305 -4.33700195 9.86487305 -4.67700195 3.74487305 C-6.98700195 3.74487305 -9.29700195 3.74487305 -11.67700195 3.74487305 C-12.00700195 9.68487305 -12.33700195 15.62487305 -12.67700195 21.74487305 C-14.32700195 21.74487305 -15.97700195 21.74487305 -17.67700195 21.74487305 C-17.67700195 14.15487305 -17.67700195 6.56487305 -17.67700195 -1.25512695 C-3.74527701 -2.80309639 -3.74527701 -2.80309639 0 0 Z " fill="#FFFFFF" transform="translate(359.677001953125,726.255126953125)"/>
<path d="M0 0 C5.44330296 5.28646955 9.96065372 10.28305596 10.38574219 18.18457031 C10.44262265 23.00939453 10.16579089 27.81090019 9.875 32.625 C9.79654775 34.31366845 9.7210024 36.00247457 9.6484375 37.69140625 C9.46578553 41.79662636 9.24384204 45.89797838 9 50 C8.01 50.495 8.01 50.495 7 51 C2.16259248 34.42930614 0.60859468 17.18755333 0 0 Z " fill="#865F2D" transform="translate(318,141)"/>
<path d="M0 0 C3.36410994 0.68998581 6.14435115 1.95673576 9.203125 3.50390625 C10.1828125 3.99697266 11.1625 4.49003906 12.171875 4.99804688 C13.18765625 5.51431641 14.2034375 6.03058594 15.25 6.5625 C16.796875 7.34270508 16.796875 7.34270508 18.375 8.13867188 C20.91850444 9.42219958 23.4600653 10.70942659 26 12 C26 12.33 26 12.66 26 13 C20.26858753 13.40886509 17.01215057 12.35753022 12.0625 9.5 C10.34740234 8.52546875 10.34740234 8.52546875 8.59765625 7.53125 C7.74042969 7.0259375 6.88320313 6.520625 6 6 C9.37793463 10.40730525 12.75859504 14.77568389 16.4375 18.9375 C19 22 19 22 19 24 C15.63163511 22.54238919 13.43494248 20.6759774 10.875 18.0625 C10.19179688 17.37285156 9.50859375 16.68320312 8.8046875 15.97265625 C7 14 7 14 5 11 C5.32563482 18.53844618 6.70582511 25.60664944 8.54003906 32.89624023 C9.63112008 37.25699535 10.43937472 41.53835717 11 46 C10.01 45.67 9.02 45.34 8 45 C7.14038086 42.78198242 7.14038086 42.78198242 6.46484375 39.85546875 C6.08682617 38.24961914 6.08682617 38.24961914 5.70117188 36.61132812 C5.44916016 35.48146484 5.19714844 34.35160156 4.9375 33.1875 C4.68162109 32.10017578 4.42574219 31.01285156 4.16210938 29.89257812 C1.87892987 20.0144519 -0.39156671 10.18073443 0 0 Z " fill="#E2B563" transform="translate(425,321)"/>
<path d="M0 0 C1.65 0 3.3 0 5 0 C5 8.58 5 17.16 5 26 C9.95 26 14.9 26 20 26 C20 27.65 20 29.3 20 31 C13.4 31 6.8 31 0 31 C0 20.77 0 10.54 0 0 Z " fill="#FFFFFF" transform="translate(664,717)"/>
<path d="M0 0 C1.09896528 1.09896528 2.19570529 2.20019582 3.28515625 3.30859375 C4.61772456 4.62294928 5.98748798 5.89963896 7.37109375 7.16015625 C8.19738281 7.93230469 9.02367187 8.70445312 9.875 9.5 C10.67679687 10.2321875 11.47859375 10.964375 12.3046875 11.71875 C14 14 14 14 13.91796875 16.32421875 C13.61503906 17.20722656 13.31210937 18.09023438 13 19 C12.60683594 20.17175781 12.21367187 21.34351563 11.80859375 22.55078125 C11.3551426 23.80598661 10.89804149 25.05987875 10.4375 26.3125 C10.20353516 26.95767578 9.96957031 27.60285156 9.72851562 28.26757812 C9.15552993 29.84621219 8.57820536 31.42327026 8 33 C5.47611092 30.01004814 4.43009761 27.60177785 3.61328125 23.7890625 C3.39736328 22.79132813 3.18144531 21.79359375 2.95898438 20.765625 C2.74564453 19.72921875 2.53230469 18.6928125 2.3125 17.625 C2.08755859 16.59632813 1.86261719 15.56765625 1.63085938 14.5078125 C0.59325362 9.61308869 -0.32005394 5.03436203 0 0 Z " fill="#6E4A21" transform="translate(429,331)"/>
<path d="M0 0 C1.65 0 3.3 0 5 0 C6.65 4.62 8.3 9.24 10 14 C10.804375 11.875625 11.60875 9.75125 12.4375 7.5625 C14.875 1.125 14.875 1.125 16 0 C17.66617115 -0.04063832 19.33388095 -0.042721 21 0 C19.88195521 3.27325262 18.75437425 6.54314082 17.625 9.8125 C17.30789063 10.74126953 16.99078125 11.67003906 16.6640625 12.62695312 C16.3546875 13.51962891 16.0453125 14.41230469 15.7265625 15.33203125 C15.44377441 16.15421143 15.16098633 16.9763916 14.86962891 17.82348633 C14 20 14 20 12 23 C9.73828125 23.0859375 9.73828125 23.0859375 7 22 C5.26142497 19.04704341 4.25861918 15.86909607 3.1875 12.625 C2.87619141 11.7484375 2.56488281 10.871875 2.24414062 9.96875 C0 3.51746223 0 3.51746223 0 0 Z " fill="#FFFFFF" transform="translate(499,725)"/>
<path d="M0 0 C0.66 0.33 1.32 0.66 2 1 C2.74609375 3.26220703 2.74609375 3.26220703 3.4375 6.2578125 C3.69192871 7.35174316 3.94635742 8.44567383 4.20849609 9.57275391 C4.46969238 10.74499512 4.73088867 11.91723633 5 13.125 C5.2676416 14.30884277 5.5352832 15.49268555 5.81103516 16.71240234 C8.24664861 27.70801614 10.4619578 38.68203401 10 50 C5.42835957 48.63167164 3.73734692 46.74186 1.125 42.8125 C-1.83941396 38.51240903 -4.85870249 34.91187278 -8.75 31.4375 C-10 30 -10 30 -10 27 C-2.97229902 30.07461918 2.12875806 36.54793009 6 43 C5.79746362 33.40714065 3.93768244 24.44207369 1.7277832 15.13647461 C0.52249025 9.95164817 -0.28924356 5.32504818 0 0 Z " fill="#E2B563" transform="translate(556,367)"/>
<path d="M0 0 C1.32 0 2.64 0 4 0 C4.98414433 1.91411557 5.96213349 3.8313967 6.9375 5.75 C7.48277344 6.81734375 8.02804687 7.8846875 8.58984375 8.984375 C12.18654803 16.67594206 11.51592164 23.75261867 8.91796875 31.65625 C7.62810556 34.94951771 6.32798185 37.31929363 4 40 C2.68 40 1.36 40 0 40 C0.4021875 39.071875 0.4021875 39.071875 0.8125 38.125 C5.31008429 26.28925187 6.17883596 18.04727831 2 6 C1.608125 4.80375 1.21625 3.6075 0.8125 2.375 C0.544375 1.59125 0.27625 0.8075 0 0 Z " fill="#FFFFFF" transform="translate(619,716)"/>
<path d="M0 0 C0 2.64 0 5.28 0 8 C1.32 8 2.64 8 4 8 C4 9.32 4 10.64 4 12 C2.68 12 1.36 12 0 12 C0 16.62 0 21.24 0 26 C1.32 26 2.64 26 4 26 C4 27.65 4 29.3 4 31 C-1.39325843 31.35955056 -1.39325843 31.35955056 -3.6875 30 C-5.76763714 26.83026721 -5.31199229 23.46746606 -5.1875 19.8125 C-5.17396484 19.06291016 -5.16042969 18.31332031 -5.14648438 17.54101562 C-5.11118539 15.69370233 -5.05737917 13.84675934 -5 12 C-5.66 12 -6.32 12 -7 12 C-7 10.68 -7 9.36 -7 8 C-6.34 8 -5.68 8 -5 8 C-5 6.02 -5 4.04 -5 2 C-1.125 0 -1.125 0 0 0 Z " fill="#FFFFFF" transform="translate(570,717)"/>
<path d="M0 0 C0.99 0 1.98 0 3 0 C2.53913653 3.04169892 1.84170092 5.32978975 0.5 8.125 C-3.75448502 17.94629875 -1.42973702 26.3089989 2 36 C2.35330892 37.32817984 2.69638823 38.65958634 3 40 C0.67578125 39.7890625 0.67578125 39.7890625 -2 39 C-7.19064043 32.51490356 -7.70623832 24.53072835 -7.4296875 16.53515625 C-6.84959119 11.76254566 -5.51793936 8.06884404 -3 4 C-2.484375 3.154375 -1.96875 2.30875 -1.4375 1.4375 C-0.963125 0.963125 -0.48875 0.48875 0 0 Z " fill="#FFFFFF" transform="translate(404,716)"/>
<path d="M0 0 C0 2.64 0 5.28 0 8 C1.32 8 2.64 8 4 8 C4 9.32 4 10.64 4 12 C2.68 12 1.36 12 0 12 C0 16.62 0 21.24 0 26 C1.32 26 2.64 26 4 26 C4 27.65 4 29.3 4 31 C1.125 31.125 1.125 31.125 -2 31 C-4.94289954 28.05710046 -4.97327103 25.88526342 -5.09765625 21.765625 C-5.08605469 20.60546875 -5.07445312 19.4453125 -5.0625 18.25 C-5.05347656 17.07953125 -5.04445313 15.9090625 -5.03515625 14.703125 C-5.02355469 13.81109375 -5.01195312 12.9190625 -5 12 C-5.66 12 -6.32 12 -7 12 C-7 10.68 -7 9.36 -7 8 C-6.34 8 -5.68 8 -5 8 C-5 6.02 -5 4.04 -5 2 C-1.125 0 -1.125 0 0 0 Z " fill="#FFFFFF" transform="translate(785,717)"/>
<path d="M0 0 C0 2.64 0 5.28 0 8 C1.32 8 2.64 8 4 8 C4 9.32 4 10.64 4 12 C2.68 12 1.36 12 0 12 C0.33 16.29 0.66 20.58 1 25 C1.99 25.33 2.98 25.66 4 26 C4.33 27.65 4.66 29.3 5 31 C1.625 31.125 1.625 31.125 -2 31 C-4 29 -4 29 -4.1953125 25.0859375 C-4.18200376 23.51550649 -4.15813602 21.94513779 -4.125 20.375 C-4.11597656 19.57320312 -4.10695313 18.77140625 -4.09765625 17.9453125 C-4.07406223 15.96341477 -4.03819065 13.98167019 -4 12 C-4.99 12 -5.98 12 -7 12 C-7 10.68 -7 9.36 -7 8 C-6.01 8 -5.02 8 -4 8 C-4.061875 7.05125 -4.12375 6.1025 -4.1875 5.125 C-4.125625 4.09375 -4.06375 3.0625 -4 2 C-1 0 -1 0 0 0 Z " fill="#FFFFFF" transform="translate(293,717)"/>
<path d="M0 0 C4.57300131 0.51555066 7.50168602 1.6300204 11.3125 4.1875 C12.17488281 4.75855469 13.03726562 5.32960938 13.92578125 5.91796875 C15.59252741 7.04678159 17.25696913 8.17918139 18.90820312 9.33056641 C25.30641025 13.72094964 32.02230989 17.37163923 38.875 21 C41.101706 22.1872309 43.32826986 23.37472843 45.5546875 24.5625 C46.62557617 25.13226563 47.69646484 25.70203125 48.79980469 26.2890625 C53.54999962 28.82868457 58.2769975 31.41023413 63 34 C63 34.99 63 35.98 63 37 C58.98155658 35.7669895 55.51262658 34.31064232 51.90234375 32.1640625 C50.94610107 31.60017822 49.9898584 31.03629395 49.00463867 30.45532227 C47.99248291 29.85131592 46.98032715 29.24730957 45.9375 28.625 C43.78699785 27.35455506 41.63594532 26.08504135 39.484375 24.81640625 C37.86112305 23.85758545 37.86112305 23.85758545 36.20507812 22.87939453 C31.3935802 20.05802715 26.54059501 17.31145282 21.6875 14.5625 C1.55176862 3.10353724 1.55176862 3.10353724 0 0 Z " fill="#DDBF70" transform="translate(478,370)"/>
<path d="M0 0 C0.495 1.485 0.495 1.485 1 3 C-2.25367 8.63929477 -7.96361059 12.52710669 -13.1875 16.1875 C-13.96125977 16.73776855 -14.73501953 17.28803711 -15.53222656 17.85498047 C-25.88255504 25.13677519 -36.54310947 32.56345003 -48 38 C-48 36.68 -48 35.36 -48 34 C-45.55078125 32.18359375 -45.55078125 32.18359375 -42.3125 30.4375 C-41.25675781 29.85871094 -40.20101563 29.27992188 -39.11328125 28.68359375 C-38.08589844 28.12800781 -37.05851562 27.57242187 -36 27 C-25.855242 21.14474578 -16.27838253 14.14709733 -7.0625 6.9375 C-6.16736694 6.24043945 -6.16736694 6.24043945 -5.25415039 5.52929688 C-2.16978112 3.15976018 -2.16978112 3.15976018 0 0 Z " fill="#1C5264" transform="translate(545,343)"/>
<path d="M0 0 C3.875 1.75 3.875 1.75 5 4 C4.34 4 3.68 4 3 4 C3 21.16 3 38.32 3 56 C-0.88523375 48.2295325 -1.29442908 40.39646126 -0.9765625 31.8359375 C-0.95153656 30.91785309 -0.92651062 29.99976868 -0.90072632 29.05386353 C-0.81944371 26.16048042 -0.72250728 23.26787702 -0.625 20.375 C-0.56666637 18.39716587 -0.50936535 16.41930101 -0.453125 14.44140625 C-0.31400359 9.62716678 -0.16085468 4.81356032 0 0 Z " fill="#A1783D" transform="translate(329,160)"/>
<path d="M0 0 C-0.33 1.65 -0.66 3.3 -1 5 C-2.98 5 -4.96 5 -7 5 C-7.33 10.94 -7.66 16.88 -8 23 C-9.65 23 -11.3 23 -13 23 C-13 15.41 -13 7.82 -13 0 C-7.57492316 -0.77501098 -5.00068031 -1.09771031 0 0 Z " fill="#FFFFFF" transform="translate(471,725)"/>
<path d="M0 0 C2.46019028 2.23161405 3.87486642 4.39202231 5.34765625 7.359375 C5.78295654 8.22071045 6.21825684 9.0820459 6.66674805 9.96948242 C7.12734619 10.88705322 7.58794434 11.80462402 8.0625 12.75 C16.41316118 29.02104818 26.53530361 43.19758756 38.921875 56.67578125 C41.04370878 59.04888482 43.03339821 61.49745493 45 64 C42 64 42 64 40.125 62.5234375 C26.03060388 48.27358848 15.04339452 31.79124481 5.375 14.3125 C4.84140869 13.35537109 4.30781738 12.39824219 3.75805664 11.41210938 C3.26813232 10.50912109 2.77820801 9.60613281 2.2734375 8.67578125 C1.83435059 7.87052002 1.39526367 7.06525879 0.94287109 6.2355957 C0 4 0 4 0 0 Z " fill="#D8B368" transform="translate(445,394)"/>
<path d="M0 0 C10.85673244 5.95109778 19.63199242 16.26553166 27 26 C27.44085937 26.57121582 27.88171875 27.14243164 28.3359375 27.73095703 C34.62921718 35.89961667 41.13178295 44.35832466 45 54 C44.67 54.99 44.34 55.98 44 57 C43.3709375 55.90042969 42.741875 54.80085938 42.09375 53.66796875 C31.55202417 35.39039418 19.02385998 17.43234624 2.4375 4.0625 C1.633125 3.381875 0.82875 2.70125 0 2 C0 1.34 0 0.68 0 0 Z " fill="#D6B369" transform="translate(496,274)"/>
<path d="M0 0 C1.65 0 3.3 0 5 0 C5 7.59 5 15.18 5 23 C3.35 23 1.7 23 0 23 C0 15.41 0 7.82 0 0 Z " fill="#FFFFFF" transform="translate(761,725)"/>
<path d="M0 0 C1.65 0 3.3 0 5 0 C5 7.59 5 15.18 5 23 C3.35 23 1.7 23 0 23 C0 15.41 0 7.82 0 0 Z " fill="#FFFFFF" transform="translate(697,725)"/>
<path d="M0 0 C1.65 0 3.3 0 5 0 C5 7.59 5 15.18 5 23 C3.35 23 1.7 23 0 23 C0 15.41 0 7.82 0 0 Z " fill="#FFFFFF" transform="translate(482,725)"/>
<path d="M0 0 C1.65 0 3.3 0 5 0 C5 7.59 5 15.18 5 23 C3.35 23 1.7 23 0 23 C0 15.41 0 7.82 0 0 Z " fill="#FFFFFF" transform="translate(238,725)"/>
<path d="M0 0 C4.952565 4.79280484 4.952565 4.79280484 5.11352539 8.88916016 C5.10567017 10.69586182 5.10567017 10.69586182 5.09765625 12.5390625 C5.09443359 13.84101563 5.09121094 15.14296875 5.08789062 16.484375 C5.07953466 17.86458399 5.07106971 19.24479232 5.0625 20.625 C5.05748501 22.01301926 5.0529221 23.40104022 5.04882812 24.7890625 C5.03700976 28.19275132 5.02053434 31.59635439 5 35 C-0.9571722 26.0642417 0.45389764 10.53520322 0 0 Z " fill="#6B431D" transform="translate(318,141)"/>
<path d="M0 0 C4.57300131 0.51555066 7.50168602 1.6300204 11.3125 4.1875 C12.26125 4.81527344 13.21 5.44304687 14.1875 6.08984375 C15.115625 6.72019531 16.04375 7.35054688 17 8 C24.2599937 12.91548953 24.2599937 12.91548953 32 17 C31.67 17.66 31.34 18.32 31 19 C22.98952684 16.04482545 3.90191251 7.80382502 0 0 Z " fill="#E4B764" transform="translate(478,370)"/>
<path d="M0 0 C0.66 0.33 1.32 0.66 2 1 C2 13.54 2 26.08 2 39 C-2.8186914 31.7719629 -0.94674106 21.24505674 -0.5625 12.9375 C-0.51029297 11.69033203 -0.45808594 10.44316406 -0.40429688 9.15820312 C-0.27562425 6.10515269 -0.14070861 3.0525154 0 0 Z " fill="#795225" transform="translate(323,149)"/>
<path d="M0 0 C3.08687185 1.42998755 6.1688204 2.87029329 9.25 4.3125 C10.12269531 4.71662109 10.99539063 5.12074219 11.89453125 5.53710938 C12.73886719 5.93349609 13.58320313 6.32988281 14.453125 6.73828125 C15.22817383 7.09962158 16.00322266 7.46096191 16.80175781 7.83325195 C19.06085204 9.03229808 20.99762342 10.41445281 23 12 C16.90597355 12.4748592 13.29279956 11.13007801 8.125 8.25 C7.44953125 7.90195312 6.7740625 7.55390625 6.078125 7.1953125 C1.17512876 4.53706153 1.17512876 4.53706153 0.30419922 1.86621094 C0.20381348 1.25036133 0.10342773 0.63451172 0 0 Z " fill="#F3DC7F" transform="translate(428,322)"/>
<path d="M0 0 C-3.05099404 3.32366742 -6.23449516 5.54224226 -10.125 7.8125 C-11.17945313 8.43769531 -12.23390625 9.06289063 -13.3203125 9.70703125 C-14.64675781 10.34705078 -14.64675781 10.34705078 -16 11 C-16.66 10.67 -17.32 10.34 -18 10 C-16.66179725 5.98539176 -14.86458076 5.41512807 -11.25 3.3125 C-9.67992187 2.37857422 -9.67992187 2.37857422 -8.078125 1.42578125 C-5.02853536 0.01321752 -3.29916562 -0.323807 0 0 Z " fill="#025479" transform="translate(514,370)"/>
<path d="M0 0 C1.72990025 0.93614567 3.45888696 1.87397958 5.1875 2.8125 C6.15042969 3.33457031 7.11335938 3.85664063 8.10546875 4.39453125 C9.06066406 4.92433594 10.01585937 5.45414062 11 6 C11.94488281 6.51949219 12.88976562 7.03898437 13.86328125 7.57421875 C14.56839844 8.04472656 15.27351563 8.51523437 16 9 C16 9.66 16 10.32 16 11 C11.72903508 10.4222095 8.81164208 8.92465642 5.1875 6.625 C4.21167969 6.01914062 3.23585938 5.41328125 2.23046875 4.7890625 C1.49441406 4.19867188 0.75835937 3.60828125 0 3 C0 2.01 0 1.02 0 0 Z " fill="#E4B764" transform="translate(496,359)"/>
<path d="M0 0 C4.23429756 1.31061591 8.07407404 2.94356259 12 5 C12 5.99 12 6.98 12 8 C7.1725201 6.58707905 3.2837641 4.57025846 -1 2 C-0.67 1.34 -0.34 0.68 0 0 Z " fill="#E9D27B" transform="translate(529,399)"/>
<path d="M0 0 C4.8274799 1.41292095 8.7162359 3.42974154 13 6 C12.67 6.66 12.34 7.32 12 8 C7.69235185 6.43358249 3.93828536 4.31663844 0 2 C0 1.34 0 0.68 0 0 Z " fill="#D6B46A" transform="translate(497,381)"/>
<path d="M0 0 C0.99 0 1.98 0 3 0 C3.99 2.97 4.98 5.94 6 9 C5.01 9.495 5.01 9.495 4 10 C3.32845067 8.71086513 2.66291141 7.41859796 2 6.125 C1.62875 5.40570313 1.2575 4.68640625 0.875 3.9453125 C0 2 0 2 0 0 Z " fill="#E1B665" transform="translate(542,334)"/>
<path d="M0 0 C1.65 0 3.3 0 5 0 C5 1.65 5 3.3 5 5 C3.35 5 1.7 5 0 5 C0 3.35 0 1.7 0 0 Z " fill="#FFFFFF" transform="translate(761,717)"/>
<path d="M0 0 C1.65 0 3.3 0 5 0 C5 1.65 5 3.3 5 5 C3.35 5 1.7 5 0 5 C0 3.35 0 1.7 0 0 Z " fill="#FFFFFF" transform="translate(697,717)"/>
<path d="M0 0 C1.65 0 3.3 0 5 0 C5 1.65 5 3.3 5 5 C3.35 5 1.7 5 0 5 C0 3.35 0 1.7 0 0 Z " fill="#FFFFFF" transform="translate(482,717)"/>
<path d="M0 0 C1.65 0 3.3 0 5 0 C5 1.65 5 3.3 5 5 C3.35 5 1.7 5 0 5 C0 3.35 0 1.7 0 0 Z " fill="#FFFFFF" transform="translate(238,717)"/>
<path d="M0 0 C2.97246802 2.54782974 4.41535288 5.45340883 6 9 C6 9.66 6 10.32 6 11 C3 10 3 10 1.3125 7.1875 C0 4 0 4 0 0 Z " fill="#E5B865" transform="translate(445,394)"/>
<path d="M0 0 C5.75 1.75 5.75 1.75 8 4 C6.25 4.6875 6.25 4.6875 4 5 C1.75 3.6875 1.75 3.6875 0 2 C0 1.34 0 0.68 0 0 Z " fill="#DCC87A" transform="translate(522,395)"/>
</svg>
